<?xml version="1.0" standalone="no"?><svg xmlns="http://www.w3.org/2000/svg" viewBox="0 0 1440 320"><path fill="#122555" fill-opacity="0.6" d="M0,192L26.7,176C53.3,160,107,128,160,122.7C213.3,117,267,139,320,149.3C373.3,160,427,160,480,154.7C533.3,149,587,139,640,122.7C693.3,107,747,85,800,90.7C853.3,96,907,128,960,160C1013.3,192,1067,224,1120,224C1173.3,224,1227,192,1280,154.7C1333.3,117,1387,75,1413,53.3L1440,32L1440,320L1413.3,320C1386.7,320,1333,320,1280,320C1226.7,320,1173,320,1120,320C1066.7,320,1013,320,960,320C906.7,320,853,320,800,320C746.7,320,693,320,640,320C586.7,320,533,320,480,320C426.7,320,373,320,320,320C266.7,320,213,320,160,320C106.7,320,53,320,27,320L0,320Z"></path></svg>